<?xml version="1.0" encoding="UTF-8"?>
<svg id="Layer_2" data-name="Layer 2" xmlns="http://www.w3.org/2000/svg" viewBox="0 0 189.05 17.2">
  <defs>
    <style>
      .cls-1 {
        fill: #f0f2f5;
      }

      .cls-2 {
        fill: #edf1f3;
      }

      .cls-3 {
        fill: #013147;
      }

      .cls-4 {
        fill: #0c2647;
      }

      .cls-5 {
        fill: #239ebb;
      }

      .cls-6 {
        fill: #ecf0f4;
      }

      .cls-7 {
        fill: #249ebb;
      }

      .cls-8 {
        fill: #feb508;
      }

      .cls-9 {
        fill: #0b2647;
      }

      .cls-10 {
        fill: #eff3f5;
      }

      .cls-11 {
        fill: #eff3f6;
      }

      .cls-12 {
        fill: #0c2748;
      }

      .cls-13 {
        fill: #0c2747;
      }
    </style>
  </defs>
  <g id="Layer_1-2" data-name="Layer 1">
    <g>
      <path class="cls-3" d="M1.56.03c1.51-.25,2.99,1.01,3.85,2.11,2.3,2.96,3.8,6.45,6.4,9.35,4.5,5.01,11.04,6.91,16.56,2.12,1.29-1.12,4.32-4.8,5.78-5.1,2.31-.47.98,2.9.38,3.9-3.87,6.44-16.08,5.34-22.01,2.72C8.46,13.34.99,7.86.08,3.32-.16,2.13.1.28,1.56.03Z"/>
      <g>
        <path class="cls-9" d="M54.78,6.32l1.14,4.86,1.19-4.82c.33-.04,1.55-.15,1.72.06l1.29,4.66.94-4.76h1.76l-1.71,6.63c-.17.23-1.6.03-1.97.11l-1.25-4.56-1.14,4.45c-.15.2-1.59.1-1.93.06l-1.76-6.68h1.71Z"/>
        <path class="cls-9" d="M50.47,6.73s-.06-.57-.52-.87c-1.5-.99-3.53.68-1.97,1.55,1.69.94,4.9.18,4.46,3.5s-7.06,3.14-7.05-.35h1.76s.11.44.27.61c1.02,1.18,4,.25,2.95-1.08-.85-1.07-4.04-.35-4.73-2.53-1.14-3.62,4.72-4.66,6.26-2.21.13.2.59,1.38.28,1.38-.23,0-1.65.06-1.71,0Z"/>
        <path class="cls-9" d="M117.11,6.73h-1.76s-.09-.35-.19-.49c-1.2-1.73-4.27.15-2.33,1.19,1.33.71,3.75.27,4.34,2.2,1.32,4.34-6.78,5-7.01.93h1.87s.02.29.12.45c.82,1.36,4.15.55,3.05-.97-.38-.53-2.5-.71-3.23-1.02-2.35-.97-2.04-3.95.25-4.76,1.96-.69,4.86.03,4.91,2.46Z"/>
        <path class="cls-9" d="M80.26,7.35c.22-.13.26-.43.47-.62.77-.73,2.39-.67,3.15.06.15.15.63.97.63,1.13v5.12h-1.76v-4.19c0-.14-.24-.65-.36-.78-.39-.43-1.21-.42-1.65-.08-.14.1-.48.63-.48.76v4.29h-1.87V3.84h1.71s.16.14.16.16v3.36Z"/>
        <path class="cls-9" d="M133.19,6.32h1.76v6.73h-1.76c-.05,0,.04-.91,0-1.03-.42.45-.6.9-1.26,1.07-1.12.29-2.41.01-2.87-1.14-.04-.11-.23-.75-.23-.81v-4.81h1.71s.16.14.16.16v4.35c0,.06.32.55.42.62.85.62,2.07-.14,2.07-1.14v-3.98Z"/>
        <path class="cls-9" d="M157.58,13.05h-1.87v-4.4s-.16-.34-.21-.41c-.67-.99-2.28-.34-2.28.72v4.09h-1.76v-6.73h1.76c.05,0-.04.91,0,1.03.79-1.35,3.05-1.62,3.93-.24.13.21.43,1.02.43,1.23v4.71Z"/>
        <polygon class="cls-9" points="177.2 4.25 177.2 11.49 181.14 11.49 181.14 13.05 175.33 13.05 175.33 4.25 177.2 4.25"/>
        <polygon class="cls-9" points="170.25 4.25 170.25 11.49 174.09 11.49 174.09 13.05 168.38 13.05 168.38 4.25 170.25 4.25"/>
        <path class="cls-9" d="M69.15,4.77v1.55c1.13-.07,1.6-.13,1.35,1.19-.09.47-.96.19-1.35.26.08,1.01-.1,2.17,0,3.16.1,1.05,1.23.65,1.36.77.05.05-.04,1.14,0,1.35h-1.92c-.11,0-.78-.35-.88-.46-.83-.89-.2-4.6-.41-4.81-.08-.08-.91.17-1.02-.17-.05-.15-.04-1.08.03-1.18.13-.19.75-.06.99-.1v-1.55h1.87Z"/>
        <path class="cls-9" d="M138.59,4.77v1.55h1.35v1.45h-1.35v3.36c0,.65,1.29.51,1.35.57.05.05-.04,1.14,0,1.35h-1.82c-.63,0-1.4-.88-1.4-1.5v-3.78s-.93.05-.93,0v-1.45s.93.05.93,0v-1.55h1.87Z"/>
        <rect class="cls-13" x="125.72" y="3.84" width="1.87" height="9.21"/>
        <rect class="cls-4" x="63.65" y="6.32" width="1.87" height="6.73"/>
        <rect class="cls-4" x="140.98" y="6.32" width="1.87" height="6.73"/>
        <circle class="cls-12" cx="141.89" cy="4.43" r="1.01"/>
        <circle class="cls-12" cx="64.57" cy="4.43" r="1.01"/>
        <g>
          <path class="cls-9" d="M120.71,6.24c2.68-.37,4.23,1.44,3.94,4.03-.25,2.21-1.92,3.14-4.04,2.85-3.43-.46-3.5-6.39.1-6.88Z"/>
          <path class="cls-10" d="M121.02,7.69c2.14-.49,2.4,3.74.59,4.01-2.2.32-2.13-3.65-.59-4.01Z"/>
        </g>
        <g>
          <path class="cls-9" d="M146.56,6.25c1.84-.22,3.57.69,3.84,2.64.38,2.77-1.07,4.61-3.96,4.26-3.49-.43-3.61-6.45.12-6.89Z"/>
          <path class="cls-1" d="M146.87,7.69c2.26-.46,2.38,4.5-.1,3.99-1.41-.29-1.49-3.66.1-3.99Z"/>
        </g>
        <g>
          <path class="cls-9" d="M99.57,10.15h-4.57c-.07,1.29,1.26,2.12,2.38,1.39.12-.08.44-.46.47-.46h1.61c-.3,1.8-2.22,2.28-3.85,2.02-3.32-.52-3.36-6.46.28-6.88,2.52-.29,3.89,1.56,3.67,3.92Z"/>
          <path class="cls-6" d="M97.8,9.01h-2.8c.27-1.9,2.56-1.88,2.8,0Z"/>
        </g>
        <g>
          <path class="cls-9" d="M106.62,10.15h-4.57c-.07,1.29,1.26,2.12,2.38,1.39.12-.08.44-.46.47-.46h1.61c-.3,1.8-2.22,2.28-3.85,2.02-3.32-.52-3.36-6.46.28-6.88,2.52-.29,3.89,1.56,3.67,3.92Z"/>
          <path class="cls-6" d="M104.86,9.01h-2.8c.27-1.9,2.56-1.88,2.8,0Z"/>
        </g>
        <g>
          <path class="cls-9" d="M87.73,7.35l.68-.72c3.35-1.64,4.78,2.19,3.76,4.89-.63,1.66-2.76,2.21-4.08,1.01-.16-.15-.19-.37-.36-.42.05.13-.06.93-.1.93h-1.76V3.84h1.71s.16.14.16.16v3.36Z"/>
          <path class="cls-11" d="M88.85,7.79c2.12-.43,2.38,3.52.59,3.8-2.19.34-2.3-3.45-.59-3.8Z"/>
        </g>
        <path class="cls-9" d="M164.23,8.29h-1.66s0-.32-.34-.54c-1.13-.73-2.55.48-1.25,1.04,1.41.61,3.92.24,3.41,2.72-.47,2.3-5.82,2.31-5.87-.42h1.71s.32.48.53.61c.79.45,2.33,0,1.71-.87-.47-.65-3.15-.25-3.7-1.8-1.14-3.27,5.42-3.92,5.45-.73Z"/>
        <g>
          <path class="cls-9" d="M187.51,4.58c1.96,1,2.08,4.1.21,5.24-.18.11-.86.43-1.02.43h-2.39s-.16.14-.16.16v2.64h-1.87V4.25"/>
          <path class="cls-2" d="M184.15,5.85c.12-.4,2.15-.05,2.52.26.6.51.59,1.83-.03,2.33-.08.07-.72.37-.77.37h-1.56s-.16-.14-.16-.16c0-.55-.11-2.44,0-2.79Z"/>
        </g>
        <path class="cls-9" d="M75.69,10.67h1.76c-.31,3.15-5.13,3.4-6.1.54-.51-1.5-.28-3.66,1.2-4.54,1.32-.78,3.67-.59,4.5.82.1.17.42,1.02.38,1.15-.05.23-1.37.22-1.58.15-.33-.11-.27-1.17-1.47-1.13-1.57.05-1.71,2.59-.99,3.58.64.87,2.18.56,2.28-.57Z"/>
      </g>
      <g>
        <path class="cls-5" d="M18.38.24c4.44-.41,8.74,1.5,11.25,5.17.61.88,2.58,4.1.54,4.41-1.46.22-1.54-1.22-2.1-2.24-3.2-5.78-9.74-6.2-14.79-2.5-.58.42-1.91,1.78-2.38,1.97-1.06.43-1.99-.7-1.56-1.76.13-.33,1.73-1.63,2.11-1.93C13.38,1.89,15.91.47,18.38.24Z"/>
        <path class="cls-7" d="M19.11,4.9c2.81-.26,5.52,1.31,6.93,3.69.41.7,1.61,2.83.08,2.98-.94.09-1.05-1.11-1.36-1.7-1.85-3.63-5.67-4.13-8.79-1.69-.3.23-1.36,1.33-1.51,1.39-.85.36-1.69-.51-1.14-1.34.97-1.47,4.04-3.17,5.79-3.33Z"/>
        <ellipse class="cls-8" cx="19.96" cy="11.76" rx="2.76" ry="2.75"/>
      </g>
    </g>
  </g>
</svg>